# xmcd CD database file
#
# Track frame offsets:
#	150
#	18907
#	37125
#	61517
#
# Disc length: 1132 seconds
#
# Revision: 0
# Processed by: cddbd v1.5.1PL2 Copyright (c) Steve Scherf et al.
# Submitted via: CDex 1.51
#
DISCID=27046a04
DTITLE=ROLLY - SOS '99
DYEAR=1900
DGENRE=
TTITLE0=SOS '99
TTITLE1=M'/F'
TTITLE2=EARTH ATTACK
TTITLE3=CHEMICAL 55
EXTD=
EXTT0=
EXTT1=
EXTT2=
EXTT3=
PLAYORDER=
